{
	"asset":{
		"generator":"Khronos glTF Blender I/O v4.0.44",
		"version":"2.0"
	},
	"extensionsUsed":[
		"EXT_texture_webp",
		"KHR_materials_sheen"
	],
	"extensionsRequired":[
		"EXT_texture_webp"
	],
	"scene":0,
	"scenes":[
		{
			"name":"Scene",
			"nodes":[
				0,
				1,
				2
			]
		}
	],
	"nodes":[
		{
			"mesh":0,
			"name":"Cube.002",
			"translation":[
				0.6482975482940674,
				0.4781874418258667,
				-0.011583104729652405
			]
		},
		{
			"mesh":1,
			"name":"Circle.006",
			"translation":[
				0.6477949619293213,
				0.07589730620384216,
				0.002637609839439392
			]
		},
		{
			"mesh":2,
			"name":"Circle.007",
			"translation":[
				0.6477949619293213,
				0.4078441858291626,
				0.002637609839439392
			]
		}
	],
	"materials":[
		{
			"doubleSided":true,
			"name":"Wood",
			"normalTexture":{
				"index":0
			},
			"pbrMetallicRoughness":{
				"baseColorTexture":{
					"index":1
				},
				"metallicFactor":0,
				"metallicRoughnessTexture":{
					"index":2
				}
			}
		},
		{
			"doubleSided":true,
			"extensions":{
				"KHR_materials_sheen":{
					"sheenColorFactor":[
						0.14968982338905334,
						0.3570556044578552,
						0.4963468313217163
					],
					"sheenRoughnessFactor":0.27090907096862793
				}
			},
			"name":"Velour",
			"normalTexture":{
				"index":3
			},
			"pbrMetallicRoughness":{
				"baseColorFactor":[
					0.0007262450526468456,
					0.029637591913342476,
					0.032902542501688004,
					1
				],
				"metallicFactor":0.09090909361839294,
				"metallicRoughnessTexture":{
					"index":4
				}
			}
		}
	],
	"meshes":[
		{
			"name":"Cube.003",
			"primitives":[
				{
					"attributes":{
						"POSITION":0,
						"NORMAL":1,
						"TEXCOORD_0":2
					},
					"indices":3,
					"material":0
				}
			]
		},
		{
			"name":"Circle.006",
			"primitives":[
				{
					"attributes":{
						"POSITION":4,
						"NORMAL":5,
						"TEXCOORD_0":6
					},
					"indices":7,
					"material":1
				}
			]
		},
		{
			"name":"Circle.007",
			"primitives":[
				{
					"attributes":{
						"POSITION":8,
						"NORMAL":9,
						"TEXCOORD_0":10
					},
					"indices":11,
					"material":0
				}
			]
		}
	],
	"textures":[
		{
			"extensions":{
				"EXT_texture_webp":{
					"source":0
				}
			},
			"sampler":0
		},
		{
			"extensions":{
				"EXT_texture_webp":{
					"source":1
				}
			},
			"sampler":0
		},
		{
			"extensions":{
				"EXT_texture_webp":{
					"source":2
				}
			},
			"sampler":0
		},
		{
			"extensions":{
				"EXT_texture_webp":{
					"source":3
				}
			},
			"sampler":0
		},
		{
			"extensions":{
				"EXT_texture_webp":{
					"source":4
				}
			},
			"sampler":0
		}
	],
	"images":[
		{
			"mimeType":"image/webp",
			"name":"dark_wood_nor_gl_4k",
			"uri":"dark_wood_nor_gl_4k.webp"
		},
		{
			"mimeType":"image/webp",
			"name":"dark_wood_diff_4k",
			"uri":"dark_wood_diff_4k.webp"
		},
		{
			"mimeType":"image/webp",
			"name":"dark_wood_rough_4k",
			"uri":"dark_wood_rough_4k.webp"
		},
		{
			"mimeType":"image/webp",
			"name":"leather_red_02_nor_gl_4k",
			"uri":"leather_red_02_nor_gl_4k.webp"
		},
		{
			"mimeType":"image/webp",
			"name":"leather_red_02_rough_4k",
			"uri":"leather_red_02_rough_4k.webp"
		}
	],
	"accessors":[
		{
			"bufferView":0,
			"componentType":5126,
			"count":752,
			"max":[
				0.7410802841186523,
				0.0015057623386383057,
				0.6210745573043823
			],
			"min":[
				-0.7410802841186523,
				-2.180309534072876,
				-0.6210745573043823
			],
			"type":"VEC3"
		},
		{
			"bufferView":1,
			"componentType":5126,
			"count":752,
			"type":"VEC3"
		},
		{
			"bufferView":2,
			"componentType":5126,
			"count":752,
			"type":"VEC2"
		},
		{
			"bufferView":3,
			"componentType":5123,
			"count":3600,
			"type":"SCALAR"
		},
		{
			"bufferView":4,
			"componentType":5126,
			"count":320,
			"max":[
				0.8741325736045837,
				0.7589188814163208,
				0.8741325736045837
			],
			"min":[
				-0.8741325736045837,
				0.5818819999694824,
				-0.8741325736045837
			],
			"type":"VEC3"
		},
		{
			"bufferView":5,
			"componentType":5126,
			"count":320,
			"type":"VEC3"
		},
		{
			"bufferView":6,
			"componentType":5126,
			"count":320,
			"type":"VEC2"
		},
		{
			"bufferView":7,
			"componentType":5123,
			"count":1716,
			"type":"SCALAR"
		},
		{
			"bufferView":8,
			"componentType":5126,
			"count":2677,
			"max":[
				0.99359530210495,
				0.26362335681915283,
				0.9935952425003052
			],
			"min":[
				-0.99359530210495,
				-1.0918121517988766e-08,
				-0.99359530210495
			],
			"type":"VEC3"
		},
		{
			"bufferView":9,
			"componentType":5126,
			"count":2677,
			"type":"VEC3"
		},
		{
			"bufferView":10,
			"componentType":5126,
			"count":2677,
			"type":"VEC2"
		},
		{
			"bufferView":11,
			"componentType":5123,
			"count":13824,
			"type":"SCALAR"
		}
	],
	"bufferViews":[
		{
			"buffer":0,
			"byteLength":9024,
			"byteOffset":0,
			"target":34962
		},
		{
			"buffer":0,
			"byteLength":9024,
			"byteOffset":9024,
			"target":34962
		},
		{
			"buffer":0,
			"byteLength":6016,
			"byteOffset":18048,
			"target":34962
		},
		{
			"buffer":0,
			"byteLength":7200,
			"byteOffset":24064,
			"target":34963
		},
		{
			"buffer":0,
			"byteLength":3840,
			"byteOffset":31264,
			"target":34962
		},
		{
			"buffer":0,
			"byteLength":3840,
			"byteOffset":35104,
			"target":34962
		},
		{
			"buffer":0,
			"byteLength":2560,
			"byteOffset":38944,
			"target":34962
		},
		{
			"buffer":0,
			"byteLength":3432,
			"byteOffset":41504,
			"target":34963
		},
		{
			"buffer":0,
			"byteLength":32124,
			"byteOffset":44936,
			"target":34962
		},
		{
			"buffer":0,
			"byteLength":32124,
			"byteOffset":77060,
			"target":34962
		},
		{
			"buffer":0,
			"byteLength":21416,
			"byteOffset":109184,
			"target":34962
		},
		{
			"buffer":0,
			"byteLength":27648,
			"byteOffset":130600,
			"target":34963
		}
	],
	"samplers":[
		{
			"magFilter":9729,
			"minFilter":9987
		}
	],
	"buffers":[
		{
			"byteLength":158248,
			"uri":"stool.bin"
		}
	]
}
